<svg width="42" height="38" viewBox="0 0 42 38" fill="none" xmlns="http://www.w3.org/2000/svg">
<path id="phone" fill-rule="evenodd" clip-rule="evenodd" d="M4.94799 1.21165C5.40728 0.796715 5.95879 0.47483 6.56598 0.267331C7.17316 0.059831 7.82215 -0.0285451 8.46994 0.00805888C9.11773 0.0446629 9.74952 0.205411 10.3235 0.479651C10.8974 0.753891 11.4004 1.13536 11.799 1.59878L16.5107 7.07553C17.3743 8.08015 17.6788 9.38878 17.3376 10.6238L15.9018 15.825C15.8281 16.0944 15.8323 16.3765 15.9142 16.644C15.996 16.9115 16.1527 17.1554 16.369 17.3522L22.8184 23.1875C23.0362 23.3837 23.3062 23.5257 23.6023 23.5997C23.8985 23.6738 24.2107 23.6774 24.5089 23.6103L30.2548 22.3112C30.9285 22.1597 31.6313 22.1483 32.3106 22.2778C32.9898 22.4074 33.6277 22.6746 34.1764 23.0593L40.2295 27.32C42.4056 28.8519 42.6051 31.7613 40.6574 33.5212L37.9432 35.9769C36.0008 37.7344 33.0976 38.5063 30.3913 37.6442C23.4633 35.4415 17.1736 31.8533 11.9906 27.1467C6.78903 22.4578 2.82325 16.7678 0.388503 10.5003C-0.561717 8.05403 0.291381 5.4249 2.23382 3.6674L4.94799 1.21165Z" fill="#A6C996"/>
</svg>
