<svg width="25" height="23" viewBox="0 0 25 23" fill="none" xmlns="http://www.w3.org/2000/svg">
<path d="M2.94481 7.68002L3.77856 9.13669C4.30948 10.0663 4.57398 10.5301 4.57398 11.0399C4.57398 11.5498 4.30948 12.0136 3.77856 12.9413L2.94481 14.3999C0.571979 18.5533 -0.614438 20.629 0.309396 21.6602C1.23515 22.6894 3.42781 21.7311 7.80931 19.8144L19.8383 14.5513C23.2787 13.0467 24.9999 12.2934 24.9999 11.0399C24.9999 9.78644 23.2787 9.03319 19.8383 7.52861L7.80931 2.26544C3.42781 0.348772 1.23515 -0.609561 0.309396 0.419689C-0.614438 1.44894 0.571979 3.52469 2.94481 7.68002Z" fill="#A6C996"/>
</svg>
