<svg width="43" height="30" viewBox="0 0 43 30" fill="none" xmlns="http://www.w3.org/2000/svg">
<path id="video" d="M29.125 30H3.625C2.82935 30 2.06629 29.6839 1.50368 29.1213C0.94107 28.5587 0.625 27.7956 0.625 27V3C0.625 2.20435 0.94107 1.44129 1.50368 0.87868C2.06629 0.31607 2.82935 0 3.625 0H29.125C29.9206 0 30.6837 0.31607 31.2463 0.87868C31.8089 1.44129 32.125 2.20435 32.125 3V9.09L40.255 3.285C40.4789 3.1256 40.7422 3.03076 41.0163 3.01085C41.2905 2.99094 41.5648 3.04672 41.8093 3.1721C42.0539 3.29748 42.2593 3.48763 42.4031 3.72181C42.547 3.95598 42.6237 4.22518 42.625 4.5V25.5C42.6237 25.7748 42.547 26.044 42.4031 26.2782C42.2593 26.5124 42.0539 26.7025 41.8093 26.8279C41.5648 26.9533 41.2905 27.0091 41.0163 26.9891C40.7422 26.9692 40.4789 26.8744 40.255 26.715L32.125 20.91V27C32.125 27.7956 31.8089 28.5587 31.2463 29.1213C30.6837 29.6839 29.9206 30 29.125 30Z" fill="#A6C996"/>
</svg>
